<?xml version="1.0" encoding="UTF-8"?>
<!DOCTYPE svg PUBLIC "-//W3C//DTD SVG 1.1//EN" "http://www.w3.org/Graphics/SVG/1.1/DTD/svg11.dtd">
<svg xmlns="http://www.w3.org/2000/svg" version="1.1" width="500px" height="500px" style="shape-rendering:geometricPrecision; text-rendering:geometricPrecision; image-rendering:optimizeQuality; fill-rule:evenodd; clip-rule:evenodd" xmlns:xlink="http://www.w3.org/1999/xlink">
<g><path style="opacity:1" fill="#0b1226" d="M -0.5,-0.5 C 166.167,-0.5 332.833,-0.5 499.5,-0.5C 499.5,166.167 499.5,332.833 499.5,499.5C 332.833,499.5 166.167,499.5 -0.5,499.5C -0.5,332.833 -0.5,166.167 -0.5,-0.5 Z"/></g>
<g><path style="opacity:1" fill="#24acf0" d="M 319.5,26.5 C 289.471,12.5034 257.804,6.17005 224.5,7.5C 223.209,7.26269 222.209,7.59603 221.5,8.5C 209.043,9.73216 197.043,12.7322 185.5,17.5C 184.833,17.5 184.167,17.5 183.5,17.5C 207.655,5.47245 233.322,0.97245 260.5,4C 287.765,6.71033 313.098,15.0437 336.5,29C 330.807,28.6302 325.14,27.7969 319.5,26.5 Z"/></g>
<g><path style="opacity:1" fill="#113555" d="M 224.5,7.5 C 257.804,6.17005 289.471,12.5034 319.5,26.5C 312.843,25.298 306.177,25.298 299.5,26.5C 300.609,25.71 301.942,25.21 303.5,25C 284.72,16.5549 265.053,11.7216 244.5,10.5C 237.345,9.67121 230.011,9.17121 222.5,9C 223.416,8.72158 224.082,8.22158 224.5,7.5 Z"/></g>
<g><path style="opacity:1" fill="#1a6b9b" d="M 224.5,7.5 C 224.082,8.22158 223.416,8.72158 222.5,9C 230.011,9.17121 237.345,9.67121 244.5,10.5C 236.5,10.5 228.5,10.5 220.5,10.5C 220.833,9.83333 221.167,9.16667 221.5,8.5C 222.209,7.59603 223.209,7.26269 224.5,7.5 Z"/></g>
<g><path style="opacity:1" fill="#24acf1" d="M 220.5,10.5 C 228.5,10.5 236.5,10.5 244.5,10.5C 265.053,11.7216 284.72,16.5549 303.5,25C 301.942,25.21 300.609,25.71 299.5,26.5C 296.833,26.5 294.167,26.5 291.5,26.5C 280.513,22.5851 269.18,19.5851 257.5,17.5C 241.287,14.5737 225.287,14.907 209.5,18.5C 207.585,18.7845 205.919,18.4511 204.5,17.5C 214.307,14.8573 224.307,13.5239 234.5,13.5C 237.187,13.6641 239.854,13.4974 242.5,13C 235.046,11.35 227.712,11.1833 220.5,12.5C 210.907,13.4021 201.574,15.2354 192.5,18C 201.332,13.6253 210.666,11.1253 220.5,10.5 Z"/></g>
<g><path style="opacity:1" fill="#134467" d="M 220.5,12.5 C 227.712,11.1833 235.046,11.35 242.5,13C 239.854,13.4974 237.187,13.6641 234.5,13.5C 230.03,12.5139 225.363,12.1805 220.5,12.5 Z"/></g>
<g><path style="opacity:1" fill="#0e2038" d="M 221.5,8.5 C 221.167,9.16667 220.833,9.83333 220.5,10.5C 210.666,11.1253 201.332,13.6253 192.5,18C 201.574,15.2354 210.907,13.4021 220.5,12.5C 225.363,12.1805 230.03,12.5139 234.5,13.5C 224.307,13.5239 214.307,14.8573 204.5,17.5C 199.972,18.5666 195.638,20.2333 191.5,22.5C 188.825,21.4794 186.825,19.8128 185.5,17.5C 197.043,12.7322 209.043,9.73216 221.5,8.5 Z"/></g>
<g><path style="opacity:1" fill="#113250" d="M 183.5,17.5 C 184.167,17.5 184.833,17.5 185.5,17.5C 186.825,19.8128 188.825,21.4794 191.5,22.5C 195.638,20.2333 199.972,18.5666 204.5,17.5C 205.919,18.4511 207.585,18.7845 209.5,18.5C 201.278,20.6882 193.278,23.6882 185.5,27.5C 182.833,25.5 180.5,23.1667 178.5,20.5C 176.604,21.2745 174.937,22.2745 173.5,23.5C 171.621,23.6068 171.288,23.1068 172.5,22C 175.961,19.9345 179.627,18.4345 183.5,17.5 Z"/></g>
<g><path style="opacity:1" fill="#102f4c" d="M 257.5,17.5 C 269.18,19.5851 280.513,22.5851 291.5,26.5C 287.441,27.1308 283.441,28.1308 279.5,29.5C 272.639,24.407 265.306,20.407 257.5,17.5 Z"/></g>
<g><path style="opacity:1" fill="#24adf3" d="M 244.5,25.5 C 187.463,25.5159 142.463,48.5159 109.5,94.5C 108.588,93.2618 108.421,91.9285 109,90.5C 119.655,74.5037 131.821,59.6704 145.5,46C 149.242,44.0464 153.075,42.2131 157,40.5C 158.285,40.9504 159.452,41.6171 160.5,42.5C 163.077,41.0569 165.41,39.3902 167.5,37.5C 180.244,31.3075 193.577,26.8075 207.5,24C 218.798,22.5398 230.131,22.2065 241.5,23C 242.942,23.3768 243.942,24.2101 244.5,25.5 Z"/></g>
<g><path style="opacity:1" fill="#103150" d="M 173.5,23.5 C 174.822,23.67 175.989,23.3366 177,22.5C 179.074,24.4521 181.241,26.2854 183.5,28C 180.283,30.7843 176.616,32.1177 172.5,32C 170.981,30.6487 169.648,29.1487 168.5,27.5C 170.015,25.9178 171.681,24.5845 173.5,23.5 Z"/></g>
<g><path style="opacity:1" fill="#113453" d="M 244.5,25.5 C 245.167,25.5 245.5,25.8333 245.5,26.5C 245.167,27.1667 244.833,27.8333 244.5,28.5C 244.672,29.4916 244.338,30.1583 243.5,30.5C 192.032,29.4822 150.198,49.1489 118,89.5C 115.94,92.2857 114.44,95.2857 113.5,98.5C 111.227,98.0432 109.894,96.7099 109.5,94.5C 142.463,48.5159 187.463,25.5159 244.5,25.5 Z"/></g>
<g><path style="opacity:1" fill="#671733" d="M 245.5,26.5 C 247.368,27.2632 249.035,28.2632 250.5,29.5C 249.662,29.8417 249.328,30.5084 249.5,31.5C 247.999,30.2485 246.332,29.2485 244.5,28.5C 244.833,27.8333 245.167,27.1667 245.5,26.5 Z"/></g>
<g><path style="opacity:1" fill="#25b1f8" d="M 243.5,30.5 C 241.94,32.9535 240.94,35.6202 240.5,38.5C 236.5,38.5 232.5,38.5 228.5,38.5C 227.167,38.5 225.833,38.5 224.5,38.5C 221.615,38.1936 218.948,38.5269 216.5,39.5C 215.041,39.4326 213.708,39.7659 212.5,40.5C 172.84,47.5767 143.007,68.5767 123,103.5C 119.885,101.693 116.719,100.027 113.5,98.5C 114.44,95.2857 115.94,92.2857 118,89.5C 150.198,49.1489 192.032,29.4822 243.5,30.5 Z"/></g>
<g><path style="opacity:1" fill="#ae1a3d" d="M 250.5,29.5 C 253.527,31.529 255.86,34.1956 257.5,37.5C 256.998,38.521 256.332,38.6877 255.5,38C 253.973,35.3098 251.973,33.1432 249.5,31.5C 249.328,30.5084 249.662,29.8417 250.5,29.5 Z"/></g>
<g><path style="opacity:1" fill="#103351" d="M 170.5,33.5 C 168.641,34.5942 166.641,35.4275 164.5,36C 163.748,36.6708 163.414,37.5041 163.5,38.5C 158.228,35.8203 158.228,32.987 163.5,30C 166.614,29.5572 168.948,30.7238 170.5,33.5 Z"/></g>
<g><path style="opacity:1" fill="#25b5fd" d="M 388.5,107.5 C 384.665,108.461 380.665,109.295 376.5,110C 372.127,113.186 367.46,115.853 362.5,118C 359.854,118.497 357.187,118.664 354.5,118.5C 346.424,115.707 339.591,111.041 334,104.5C 330.405,96.0472 327.405,87.3805 325,78.5C 323.503,74.8351 321.503,71.5017 319,68.5C 311.282,61.7258 303.115,55.5591 294.5,50C 291.628,47.4634 289.128,44.6301 287,41.5C 287.821,45.3659 289.987,48.5325 293.5,51C 300.262,55.3686 306.595,60.2019 312.5,65.5C 309.12,77.6758 308.62,90.0091 311,102.5C 315.205,97.1127 320.372,93.1127 326.5,90.5C 328.266,98.0318 331.599,104.699 336.5,110.5C 322.802,123.023 309.135,135.856 295.5,149C 279.256,164.122 260.256,173.956 238.5,178.5C 233.273,175.613 228.606,171.946 224.5,167.5C 227.522,164.989 230.855,162.989 234.5,161.5C 249.989,159.058 264.322,153.558 277.5,145C 284.307,140.36 290.973,135.527 297.5,130.5C 299.053,95.9498 283.72,72.2831 251.5,59.5C 250.71,58.2058 249.71,57.0391 248.5,56C 257.432,45.7033 268.432,38.7033 281.5,35C 299.383,30.4529 317.383,29.7863 335.5,33C 337.615,33.5573 339.615,34.3906 341.5,35.5C 341.833,34.8333 342.167,34.1667 342.5,33.5C 358.21,46.2596 370.043,61.9263 378,80.5C 381.409,89.5631 384.909,98.5631 388.5,107.5 Z"/></g>
<g><path style="opacity:1" fill="#22a1e1" d="M 170.5,33.5 C 170.938,33.4346 171.272,33.6012 171.5,34C 169.907,34.9487 168.574,36.1154 167.5,37.5C 166.167,37.8333 164.833,38.1667 163.5,38.5C 163.414,37.5041 163.748,36.6708 164.5,36C 166.641,35.4275 168.641,34.5942 170.5,33.5 Z"/></g>
<g><path style="opacity:1" fill="#661633" d="M 224.5,38.5 C 225.833,38.5 227.167,38.5 228.5,38.5C 225.545,41.1156 222.545,43.7823 219.5,46.5C 218.479,45.9984 218.312,45.3317 219,44.5C 221.04,42.6298 222.873,40.6298 224.5,38.5 Z"/></g>
<g><path style="opacity:1" fill="#621732" d="M 216.5,39.5 C 216.938,39.4346 217.272,39.6012 217.5,40C 203.491,48.1702 188.824,55.0036 173.5,60.5C 172.833,60.1667 172.167,59.8333 171.5,59.5C 171.833,59.1667 172.167,58.8333 172.5,58.5C 186.186,53.0588 199.52,47.0588 212.5,40.5C 213.708,39.7659 215.041,39.4326 216.5,39.5 Z"/></g>
<g><path style="opacity:1" fill="#661633" d="M 226.5,60.5 C 226.328,61.4916 226.662,62.1583 227.5,62.5C 221.991,63.597 216.658,65.4303 211.5,68C 214.942,69.1836 218.275,70.3503 221.5,71.5C 220.167,71.5 219.5,72.1667 219.5,73.5C 216.578,72.3507 213.578,71.3507 210.5,70.5C 207.907,72.0708 206.907,74.4041 207.5,77.5C 210.518,77.7038 213.518,78.0371 216.5,78.5C 216.617,80.4835 215.95,82.1502 214.5,83.5C 194.091,77.6244 179.591,84.2911 171,103.5C 170.333,108.5 170.333,113.5 171,118.5C 172.071,121.932 173.071,125.265 174,128.5C 173.163,130.007 171.996,130.507 170.5,130C 168.858,127.214 167.358,124.381 166,121.5C 147.773,140.279 134.939,162.279 127.5,187.5C 126.548,183.839 126.715,180.172 128,176.5C 136.335,154.846 148.668,135.846 165,119.5C 163.369,98.9181 172.202,85.0848 191.5,78C 196.077,77.3479 200.577,76.5146 205,75.5C 205.273,73.8988 205.773,72.3988 206.5,71C 197.592,69.3966 189.258,70.8966 181.5,75.5C 180.479,74.9984 180.312,74.3317 181,73.5C 189.876,68.7902 199.376,66.6236 209.5,67C 211.156,65.1706 213.156,63.8372 215.5,63C 219.285,62.5926 222.952,61.7593 226.5,60.5 Z"/></g>
<g><path style="opacity:1" fill="#1a6a99" d="M 251.5,59.5 C 283.72,72.2831 299.053,95.9498 297.5,130.5C 290.973,135.527 284.307,140.36 277.5,145C 264.322,153.558 249.989,159.058 234.5,161.5C 239.284,157.601 244.284,153.934 249.5,150.5C 259.597,146.025 268.43,139.692 276,131.5C 283.967,119.348 284.634,106.681 278,93.5C 274.001,87.0018 268.835,81.6685 262.5,77.5C 259.335,71.1663 255.669,65.1663 251.5,59.5 Z"/></g>
<g><path style="opacity:1" fill="#0e223b" d="M 354.5,118.5 C 356.139,119.473 357.473,120.806 358.5,122.5C 350.636,119.437 343.302,115.437 336.5,110.5C 331.599,104.699 328.266,98.0318 326.5,90.5C 324.067,80.8162 319.4,72.4828 312.5,65.5C 306.595,60.2019 300.262,55.3686 293.5,51C 289.987,48.5325 287.821,45.3659 287,41.5C 289.128,44.6301 291.628,47.4634 294.5,50C 303.115,55.5591 311.282,61.7258 319,68.5C 321.503,71.5017 323.503,74.8351 325,78.5C 327.405,87.3805 330.405,96.0472 334,104.5C 339.591,111.041 346.424,115.707 354.5,118.5 Z"/></g>
<g><path style="opacity:1" fill="#102e4c" d="M 312.5,65.5 C 319.4,72.4828 324.067,80.8162 326.5,90.5C 320.372,93.1127 315.205,97.1127 311,102.5C 308.62,90.0091 309.12,77.6758 312.5,65.5 Z"/></g>
<g><path style="opacity:1" fill="#b31a3d" d="M 221.5,71.5 C 230.452,75.9513 237.285,82.618 242,91.5C 242.798,93.2588 242.631,94.9255 241.5,96.5C 237.526,85.5279 230.193,77.8612 219.5,73.5C 219.5,72.1667 220.167,71.5 221.5,71.5 Z"/></g>
<g><path style="opacity:1" fill="#102d4a" d="M 262.5,77.5 C 268.835,81.6685 274.001,87.0018 278,93.5C 284.634,106.681 283.967,119.348 276,131.5C 268.43,139.692 259.597,146.025 249.5,150.5C 272.241,129.461 276.574,105.128 262.5,77.5 Z"/></g>
<g><path style="opacity:1" fill="#b41a3d" d="M 203.5,175.5 C 202.833,175.5 202.5,175.167 202.5,174.5C 209.979,169.589 217.313,164.422 224.5,159C 223.874,158.25 223.374,157.416 223,156.5C 218.41,158.863 213.577,160.53 208.5,161.5C 208.5,160.5 208.5,159.5 208.5,158.5C 213.311,158.173 217.811,156.84 222,154.5C 221.869,151.049 220.702,147.882 218.5,145C 213.268,146.096 207.934,146.929 202.5,147.5C 197.448,147.733 192.782,146.733 188.5,144.5C 188.229,142.62 188.896,141.287 190.5,140.5C 209.561,145.873 223.728,139.873 233,122.5C 237.073,108.437 233.573,96.7708 222.5,87.5C 223.083,85.9984 223.916,84.6651 225,83.5C 231.558,88.9629 236.391,95.6296 239.5,103.5C 243.861,100.697 245.528,96.6968 244.5,91.5C 243.854,80.8408 243.354,70.1742 243,59.5C 242.107,58.9186 241.107,58.5852 240,58.5C 235.848,59.9398 231.681,61.2731 227.5,62.5C 226.662,62.1583 226.328,61.4916 226.5,60.5C 229.923,59.6366 233.256,58.4699 236.5,57C 243.018,54.6798 246.351,56.8465 246.5,63.5C 245.086,73.5527 245.42,83.5527 247.5,93.5C 247.37,99.1453 244.87,103.479 240,106.5C 240.564,122.698 234.064,135.032 220.5,143.5C 221.913,146.661 223.58,149.661 225.5,152.5C 237.533,144.442 243.866,133.108 244.5,118.5C 245.5,118.5 246.5,118.5 247.5,118.5C 246.366,133.788 239.532,145.788 227,154.5C 226.667,156.833 226.333,159.167 226,161.5C 219.413,165.877 212.913,170.377 206.5,175C 205.552,175.483 204.552,175.649 203.5,175.5 Z"/></g>
<g><path style="opacity:1" fill="#6c1733" d="M 211.5,89.5 C 210.624,89.3691 209.957,89.7025 209.5,90.5C 202.108,104.28 196.108,118.614 191.5,133.5C 179.517,127.525 175.017,117.858 178,104.5C 185.099,90.0282 196.265,85.0282 211.5,89.5 Z"/></g>
<g><path style="opacity:1" fill="#c11a3f" d="M 211.5,89.5 C 225.842,95.8514 230.676,106.518 226,121.5C 220.904,130.64 213.071,135.64 202.5,136.5C 198.511,136.255 194.844,135.255 191.5,133.5C 196.108,118.614 202.108,104.28 209.5,90.5C 209.957,89.7025 210.624,89.3691 211.5,89.5 Z"/></g>
<g><path style="opacity:1" fill="#24acf1" d="M 109.5,104.5 C 100.568,123.229 94.9013,142.895 92.5,163.5C 92.0307,142.317 95.0307,121.651 101.5,101.5C 104.716,101.345 107.383,102.345 109.5,104.5 Z"/></g>
<g><path style="opacity:1" fill="#123858" d="M 109.5,104.5 C 110.71,104.932 111.71,105.599 112.5,106.5C 101.275,126.921 95.608,148.921 95.5,172.5C 95.7311,179.843 96.0644,187.176 96.5,194.5C 95.8826,194.389 95.3826,194.056 95,193.5C 93.0889,183.589 92.2556,173.589 92.5,163.5C 94.9013,142.895 100.568,123.229 109.5,104.5 Z"/></g>
<g><path style="opacity:1" fill="#25b4fb" d="M 112.5,106.5 C 115.135,107.811 117.469,109.478 119.5,111.5C 107.306,137.516 102.64,164.85 105.5,193.5C 102.854,195.78 99.8544,196.113 96.5,194.5C 96.0644,187.176 95.7311,179.843 95.5,172.5C 95.608,148.921 101.275,126.921 112.5,106.5 Z"/></g>
<g><path style="opacity:1" fill="#621632" d="M 129.5,107.5 C 133.226,107.177 136.893,107.511 140.5,108.5C 143.143,115.345 144.143,122.345 143.5,129.5C 141.695,123.283 140.028,116.949 138.5,110.5C 135.061,110.094 132.061,109.094 129.5,107.5 Z"/></g>
<g><path style="opacity:1" fill="#123859" d="M 119.5,111.5 C 120.71,111.932 121.71,112.599 122.5,113.5C 109.836,138.16 105.503,164.16 109.5,191.5C 108.486,192.674 107.153,193.34 105.5,193.5C 102.64,164.85 107.306,137.516 119.5,111.5 Z"/></g>
<g><path style="opacity:1" fill="#196999" d="M 388.5,107.5 C 392.143,111.12 394.477,115.453 395.5,120.5C 391.975,120.346 389.141,121.679 387,124.5C 382.925,129.88 380.092,135.88 378.5,142.5C 378.733,143.932 379.4,144.432 380.5,144C 383.868,140.098 386.868,135.931 389.5,131.5C 391.745,129.377 394.412,128.377 397.5,128.5C 398.833,133.5 398.833,138.5 397.5,143.5C 390.894,144.104 386.227,147.438 383.5,153.5C 381.656,154.756 380.323,156.423 379.5,158.5C 379.638,161.82 381.305,163.487 384.5,163.5C 384.918,164.222 385.584,164.722 386.5,165C 385.849,166.308 386.515,167.141 388.5,167.5C 390.213,168.635 390.88,170.302 390.5,172.5C 389.448,172.351 388.448,172.517 387.5,173C 388.667,174.167 389.833,175.333 391,176.5C 392.107,175.288 392.607,175.621 392.5,177.5C 389.705,185.156 392.038,191.323 399.5,196C 392.059,197.303 385.892,200.803 381,206.5C 378.866,209.492 379.032,212.158 381.5,214.5C 377.101,220.055 371.768,221.388 365.5,218.5C 365.544,221.442 367.211,223.609 370.5,225C 373.531,225.495 376.531,225.329 379.5,224.5C 384.48,223.985 389.146,224.652 393.5,226.5C 391.035,232.626 391.035,238.626 393.5,244.5C 391.801,244.34 390.134,244.506 388.5,245C 385.444,246.856 382.444,248.689 379.5,250.5C 369.084,248.91 361.25,243.577 356,234.5C 353.348,224.306 351.348,213.973 350,203.5C 347.667,197.833 345.333,192.167 343,186.5C 341.46,180.934 342.793,176.268 347,172.5C 347.483,171.552 347.649,170.552 347.5,169.5C 346.167,169.5 344.833,169.5 343.5,169.5C 344.263,168.732 345.263,168.232 346.5,168C 346.272,167.601 345.938,167.435 345.5,167.5C 351.614,164.531 357.448,165.198 363,169.5C 363.334,161.155 363.834,152.822 364.5,144.5C 364.45,140.914 363.783,137.58 362.5,134.5C 362.392,132.217 361.559,130.217 360,128.5C 357.825,125.624 355.325,123.124 352.5,121C 349.308,120.803 346.308,119.97 343.5,118.5C 343.167,118.667 342.833,118.833 342.5,119C 343.328,119.915 344.328,120.581 345.5,121C 340.377,121.574 339.711,123.074 343.5,125.5C 344.429,130.765 343.096,135.265 339.5,139C 329.472,142.152 319.472,145.486 309.5,149C 302.323,152.509 295.99,157.175 290.5,163C 299.372,166.86 308.039,171.193 316.5,176C 322.794,177.315 328.461,176.148 333.5,172.5C 334.833,172.167 336.167,171.833 337.5,171.5C 336.048,177.997 331.882,180.997 325,180.5C 322.075,180.477 319.241,179.977 316.5,179C 310.059,175.78 303.392,173.113 296.5,171C 283.081,168.417 277.914,173.584 281,186.5C 282.167,187.667 283.333,188.833 284.5,190C 292.014,193.923 299.681,197.59 307.5,201C 311.458,203.234 314.958,206.067 318,209.5C 322.667,217.5 327.333,225.5 332,233.5C 334.705,236.036 337.205,238.703 339.5,241.5C 339.848,245.085 339.181,248.418 337.5,251.5C 328.527,246.679 319.527,241.846 310.5,237C 308.365,236.365 306.365,236.699 304.5,238C 319.137,244.49 333.137,252.324 346.5,261.5C 345.873,262.417 345.539,263.417 345.5,264.5C 343.325,268.255 339.991,269.921 335.5,269.5C 328.849,267.846 322.183,266.179 315.5,264.5C 316.757,269.602 319.757,273.435 324.5,276C 336.224,283.512 347.89,289.679 359.5,294.5C 360.107,294.376 360.44,294.043 360.5,293.5C 366.252,292.979 371.918,291.979 377.5,290.5C 373.188,296.487 373.855,301.987 379.5,307C 385.39,308.245 391.39,308.912 397.5,309C 398.931,309.465 400.097,310.299 401,311.5C 401.494,309.866 401.66,308.199 401.5,306.5C 403.471,315.236 400.471,321.903 392.5,326.5C 373.872,325.556 354.872,322.223 335.5,316.5C 325.229,310.694 314.896,304.861 304.5,299C 294.934,290.935 286.267,282.102 278.5,272.5C 277.489,268.144 275.656,264.144 273,260.5C 264.584,252.088 256.917,243.088 250,233.5C 246.509,226.837 246.676,220.337 250.5,214C 249.314,212.588 247.981,211.421 246.5,210.5C 247.609,209.71 248.942,209.21 250.5,209C 232.669,198.919 215.002,188.586 197.5,178C 194.518,177.502 191.518,177.335 188.5,177.5C 186.565,176.85 184.565,176.517 182.5,176.5C 176.581,175.664 170.581,174.497 164.5,173C 153.072,171.544 145.072,176.044 140.5,186.5C 140.875,178.615 144.875,173.448 152.5,171C 163.613,170.467 174.613,171.134 185.5,173C 181.581,171.46 178.081,169.293 175,166.5C 174.014,164.075 174.681,162.409 177,161.5C 185.428,165.964 193.928,170.298 202.5,174.5C 202.5,175.167 202.833,175.5 203.5,175.5C 220.246,185.045 237.246,194.378 254.5,203.5C 255.626,204.808 255.626,206.142 254.5,207.5C 253.387,208.946 253.22,210.613 254,212.5C 254.333,212.167 254.667,211.833 255,211.5C 265.035,217.198 273.535,224.698 280.5,234C 282.667,235.5 284.833,237 287,238.5C 288.688,230.711 286.522,224.211 280.5,219C 280.728,218.601 281.062,218.435 281.5,218.5C 285.15,220.472 288.816,222.472 292.5,224.5C 292.726,231.7 294.393,232.2 297.5,226C 277.645,210.303 257.979,194.469 238.5,178.5C 260.256,173.956 279.256,164.122 295.5,149C 309.135,135.856 322.802,123.023 336.5,110.5C 343.302,115.437 350.636,119.437 358.5,122.5C 357.473,120.806 356.139,119.473 354.5,118.5C 357.187,118.664 359.854,118.497 362.5,118C 367.46,115.853 372.127,113.186 376.5,110C 380.665,109.295 384.665,108.461 388.5,107.5 Z"/></g>
<g><path style="opacity:1" fill="#25b3fa" d="M 122.5,113.5 C 125.5,115.5 128.5,117.5 131.5,119.5C 121.977,140.78 117.31,163.113 117.5,186.5C 114.869,188.153 112.203,189.819 109.5,191.5C 105.503,164.16 109.836,138.16 122.5,113.5 Z"/></g>
<g><path style="opacity:1" fill="#0b162a" d="M 362.5,134.5 C 360.83,136.978 359.163,139.645 357.5,142.5C 354.969,134.979 350.303,129.312 343.5,125.5C 339.711,123.074 340.377,121.574 345.5,121C 344.328,120.581 343.328,119.915 342.5,119C 342.833,118.833 343.167,118.667 343.5,118.5C 346.308,119.97 349.308,120.803 352.5,121C 355.325,123.124 357.825,125.624 360,128.5C 361.559,130.217 362.392,132.217 362.5,134.5 Z"/></g>
<g><path style="opacity:1" fill="#24aef3" d="M 133.5,121.5 C 134.097,121.735 134.43,122.235 134.5,123C 132.683,129.403 131.35,135.903 130.5,142.5C 130.5,142.833 130.5,143.167 130.5,143.5C 128.056,154.64 125.89,165.974 124,177.5C 123.861,180.445 122.694,182.779 120.5,184.5C 120.431,162.577 124.764,141.577 133.5,121.5 Z"/></g>
<g><path style="opacity:1" fill="#113554" d="M 358.5,122.5 C 360.129,123.625 361.629,124.959 363,126.5C 363.667,125.167 364.333,125.167 365,126.5C 366.401,128.146 366.568,129.813 365.5,131.5C 362.768,128.773 360.434,125.773 358.5,122.5 Z"/></g>
<g><path style="opacity:1" fill="#0f2c48" d="M 343.5,125.5 C 350.303,129.312 354.969,134.979 357.5,142.5C 359.163,139.645 360.83,136.978 362.5,134.5C 363.783,137.58 364.45,140.914 364.5,144.5C 363.834,152.822 363.334,161.155 363,169.5C 357.448,165.198 351.614,164.531 345.5,167.5C 342.989,166.606 340.489,165.606 338,164.5C 337.426,165.354 336.759,166.354 336,167.5C 333.845,166.756 331.845,165.756 330,164.5C 329.5,164.667 329,164.833 328.5,165C 330.481,165.605 330.815,166.605 329.5,168C 324.783,168.476 320.117,168.476 315.5,168C 321.026,171.381 327.026,172.881 333.5,172.5C 328.461,176.148 322.794,177.315 316.5,176C 308.039,171.193 299.372,166.86 290.5,163C 295.99,157.175 302.323,152.509 309.5,149C 319.472,145.486 329.472,142.152 339.5,139C 343.096,135.265 344.429,130.765 343.5,125.5 Z"/></g>
<g><path style="opacity:1" fill="#123b5c" d="M 131.5,119.5 C 132.5,119.833 133.167,120.5 133.5,121.5C 124.764,141.577 120.431,162.577 120.5,184.5C 119.71,185.401 118.71,186.068 117.5,186.5C 117.31,163.113 121.977,140.78 131.5,119.5 Z"/></g>
<g><path style="opacity:1" fill="#6c1733" d="M 132.5,134.5 C 135.247,134.187 137.914,134.52 140.5,135.5C 139.167,135.833 137.833,136.167 136.5,136.5C 134.667,136.415 133.334,135.748 132.5,134.5 Z"/></g>
<g><path style="opacity:1" fill="#641632" d="M 190.5,140.5 C 188.896,141.287 188.229,142.62 188.5,144.5C 186.83,144.249 185.33,143.582 184,142.5C 180.054,148.779 175.721,154.779 171,160.5C 170.5,160 170,159.5 169.5,159C 173.624,153.254 177.624,147.42 181.5,141.5C 176.936,139.46 176.602,137.127 180.5,134.5C 183.598,137.043 186.931,139.043 190.5,140.5 Z"/></g>
<g><path style="opacity:1" fill="#0b1429" d="M 346.5,134.5 C 353.251,140.67 356.751,148.337 357,157.5C 354.04,150.531 352.374,150.864 352,158.5C 348.118,154.286 344.618,149.786 341.5,145C 343.047,144.667 344.38,145.167 345.5,146.5C 346.282,144.671 345.616,143.171 343.5,142C 345.752,142.05 347.418,143.216 348.5,145.5C 349.641,143.579 349.808,141.579 349,139.5C 347.906,137.922 347.072,136.255 346.5,134.5 Z"/></g>
<g><path style="opacity:1" fill="#6a1633" d="M 130.5,142.5 C 133.898,142.18 137.232,142.513 140.5,143.5C 137.02,144.806 133.687,144.806 130.5,143.5C 130.5,143.167 130.5,142.833 130.5,142.5 Z"/></g>
<g><path style="opacity:1" fill="#196594" d="M 334.5,148.5 C 327.483,149.342 320.816,151.342 314.5,154.5C 312.752,153.211 312.419,151.711 313.5,150C 320.162,146.554 327.162,144.554 334.5,144C 335.728,145.49 335.728,146.99 334.5,148.5 Z"/></g>
<g><path style="opacity:1" fill="#123a5b" d="M 397.5,143.5 C 395.772,146.864 394.772,150.198 394.5,153.5C 390.853,152.352 387.186,152.352 383.5,153.5C 386.227,147.438 390.894,144.104 397.5,143.5 Z"/></g>
<g><path style="opacity:1" fill="#0b1529" d="M 334.5,148.5 C 338.192,147.971 341.358,148.971 344,151.5C 345.978,155.288 347.811,159.121 349.5,163C 346.16,163.824 343.827,162.657 342.5,159.5C 342.318,154.822 339.985,152.322 335.5,152C 336.872,153.242 337.872,154.742 338.5,156.5C 338.062,157.506 337.396,157.506 336.5,156.5C 335.638,157.766 334.971,159.099 334.5,160.5C 332.519,162.734 330.185,162.9 327.5,161C 327.229,158.589 327.562,156.089 328.5,153.5C 323.007,154.306 322.34,156.473 326.5,160C 322.833,159.667 319.167,159.333 315.5,159C 318.089,160.197 320.756,161.197 323.5,162C 322.667,162.167 321.833,162.333 321,162.5C 316.646,161.014 312.146,160.181 307.5,160C 310.02,158.303 312.353,156.47 314.5,154.5C 320.816,151.342 327.483,149.342 334.5,148.5 Z"/></g>
<g><path style="opacity:1" fill="#18608d" d="M 342.5,159.5 C 342.441,161.722 341.275,162.722 339,162.5C 337.167,162.481 335.667,161.815 334.5,160.5C 334.971,159.099 335.638,157.766 336.5,156.5C 337.396,157.506 338.062,157.506 338.5,156.5C 337.872,154.742 336.872,153.242 335.5,152C 339.985,152.322 342.318,154.822 342.5,159.5 Z"/></g>
<g><path style="opacity:1" fill="#5c1631" d="M 154.5,153.5 C 156.604,153.201 158.604,153.534 160.5,154.5C 159.5,154.833 158.5,155.167 157.5,155.5C 155.97,155.36 154.97,154.693 154.5,153.5 Z"/></g>
<g><path style="opacity:1" fill="#102f4d" d="M 388.5,167.5 C 386.515,167.141 385.849,166.308 386.5,165C 385.584,164.722 384.918,164.222 384.5,163.5C 386.167,163.5 387.833,163.5 389.5,163.5C 389.896,160.518 389.229,157.851 387.5,155.5C 388.776,154.355 390.109,154.355 391.5,155.5C 392.982,161.782 394.315,161.448 395.5,154.5C 397.584,155.248 399.584,155.248 401.5,154.5C 401.109,155.718 401.776,156.552 403.5,157C 401.289,160.878 397.955,162.378 393.5,161.5C 394.263,164.141 394.43,166.808 394,169.5C 392.827,166.59 390.994,165.923 388.5,167.5 Z"/></g>
<g><path style="opacity:1" fill="#621632" d="M 144.5,160.5 C 148.884,160.174 153.217,160.508 157.5,161.5C 152.051,162.062 146.718,163.062 141.5,164.5C 134.939,175.147 132.772,186.48 135,198.5C 136.886,203.718 140.219,207.718 145,210.5C 145.688,211.332 145.521,211.998 144.5,212.5C 135.771,207.381 131.438,199.715 131.5,189.5C 132.072,180.284 134.572,171.617 139,163.5C 140.649,162.047 142.482,161.047 144.5,160.5 Z"/></g>
<g><path style="opacity:1" fill="#0b152a" d="M 345.5,167.5 C 345.938,167.435 346.272,167.601 346.5,168C 345.263,168.232 344.263,168.732 343.5,169.5C 341.214,169.595 339.214,170.262 337.5,171.5C 336.167,171.833 334.833,172.167 333.5,172.5C 327.026,172.881 321.026,171.381 315.5,168C 320.117,168.476 324.783,168.476 329.5,168C 330.815,166.605 330.481,165.605 328.5,165C 329,164.833 329.5,164.667 330,164.5C 331.845,165.756 333.845,166.756 336,167.5C 336.759,166.354 337.426,165.354 338,164.5C 340.489,165.606 342.989,166.606 345.5,167.5 Z"/></g>
<g><path style="opacity:1" fill="#25b5fd" d="M 343.5,169.5 C 344.833,169.5 346.167,169.5 347.5,169.5C 347.649,170.552 347.483,171.552 347,172.5C 342.793,176.268 341.46,180.934 343,186.5C 345.333,192.167 347.667,197.833 350,203.5C 351.348,213.973 353.348,224.306 356,234.5C 361.25,243.577 369.084,248.91 379.5,250.5C 377.393,252.727 375.06,254.727 372.5,256.5C 360.377,253.938 349.377,248.938 339.5,241.5C 337.205,238.703 334.705,236.036 332,233.5C 327.333,225.5 322.667,217.5 318,209.5C 314.958,206.067 311.458,203.234 307.5,201C 299.681,197.59 292.014,193.923 284.5,190C 283.333,188.833 282.167,187.667 281,186.5C 277.914,173.584 283.081,168.417 296.5,171C 303.392,173.113 310.059,175.78 316.5,179C 319.241,179.977 322.075,180.477 325,180.5C 331.882,180.997 336.048,177.997 337.5,171.5C 339.214,170.262 341.214,169.595 343.5,169.5 Z"/></g>
<g><path style="opacity:1" fill="#102e4b" d="M 188.5,177.5 C 191.518,177.335 194.518,177.502 197.5,178C 215.002,188.586 232.669,198.919 250.5,209C 248.942,209.21 247.609,209.71 246.5,210.5C 230.552,201.059 214.719,191.392 199,181.5C 198.616,183.197 198.782,184.863 199.5,186.5C 198.836,188.81 198.503,191.31 198.5,194C 199.273,200.511 199.773,207.011 200,213.5C 197.52,214.812 195.02,215.812 192.5,216.5C 187.122,211.804 187.289,207.137 193,202.5C 194.801,197.833 195.967,193 196.5,188C 195.876,182.908 193.209,179.408 188.5,177.5 Z"/></g>
<g><path style="opacity:1" fill="#25b1f7" d="M 392.5,177.5 C 393.877,181.92 396.044,185.92 399,189.5C 403.853,193.263 408.52,197.263 413,201.5C 415.581,206.89 414.748,211.556 410.5,215.5C 410.958,208.961 407.958,205.628 401.5,205.5C 393.816,206.344 387.15,209.344 381.5,214.5C 379.032,212.158 378.866,209.492 381,206.5C 385.892,200.803 392.059,197.303 399.5,196C 392.038,191.323 389.705,185.156 392.5,177.5 Z"/></g>
<g><path style="opacity:1" fill="#102d4a" d="M 182.5,176.5 C 182.062,176.435 181.728,176.601 181.5,177C 185.01,178.907 186.176,181.74 185,185.5C 184.196,186.804 183.029,187.471 181.5,187.5C 176.89,183.521 171.89,180.021 166.5,177C 156.084,173.734 148.917,177.234 145,187.5C 145.663,210.287 156.496,226.454 177.5,236C 181.318,237.944 185.318,238.611 189.5,238C 190.833,236.333 190.833,234.667 189.5,233C 181.433,230.828 173.433,228.495 165.5,226C 161.667,222.167 157.833,218.333 154,214.5C 151.022,210.24 149.688,205.573 150,200.5C 151,202.5 152,204.5 153,206.5C 153.333,205.833 153.667,205.167 154,204.5C 154.426,199.66 154.26,194.827 153.5,190C 153.3,187.134 153.967,184.634 155.5,182.5C 155.52,188.007 157.853,192.174 162.5,195C 156.333,200.694 154.833,207.527 158,215.5C 160.222,219.388 163.388,222.221 167.5,224C 176.783,226.159 186.116,227.993 195.5,229.5C 198.257,233.235 197.924,236.735 194.5,240C 192.5,241 190.5,242 188.5,243C 189.056,243.383 189.389,243.883 189.5,244.5C 177.664,242.282 167.498,236.949 159,228.5C 150.903,218.307 144.903,206.974 141,194.5C 140.503,191.854 140.336,189.187 140.5,186.5C 145.072,176.044 153.072,171.544 164.5,173C 170.581,174.497 176.581,175.664 182.5,176.5 Z"/></g>
<g><path style="opacity:1" fill="#186290" d="M 199.5,186.5 C 199.5,189.833 199.5,193.167 199.5,196.5C 204.14,195.84 205.473,197.507 203.5,201.5C 208.439,213.203 204.772,218.203 192.5,216.5C 195.02,215.812 197.52,214.812 200,213.5C 199.773,207.011 199.273,200.511 198.5,194C 198.503,191.31 198.836,188.81 199.5,186.5 Z"/></g>
<g><path style="opacity:1" fill="#102d4a" d="M 214.5,205.5 C 215.552,205.351 216.552,205.517 217.5,206C 226.667,214.5 235.833,223 245,231.5C 245.333,230.833 245.667,230.167 246,229.5C 247.746,233.327 249.746,236.993 252,240.5C 261.887,248.71 269.887,258.376 276,269.5C 278.899,277.664 277.566,284.997 272,291.5C 263.333,285.5 256,278.167 250,269.5C 241.49,254.482 233.49,239.148 226,223.5C 221.917,217.599 218.083,211.599 214.5,205.5 Z"/></g>
<g><path style="opacity:1" fill="#25b2f8" d="M 117.5,207.5 C 121.437,207.207 125.27,207.54 129,208.5C 133.884,217.381 139.551,225.714 146,233.5C 160.23,247.061 173.73,261.228 186.5,276C 184.593,277.122 182.593,277.955 180.5,278.5C 158.773,262.273 140.273,242.939 125,220.5C 121.971,216.438 119.471,212.105 117.5,207.5 Z"/></g>
<g><path style="opacity:1" fill="#102e4b" d="M 281.5,218.5 C 281.062,218.435 280.728,218.601 280.5,219C 286.522,224.211 288.688,230.711 287,238.5C 284.833,237 282.667,235.5 280.5,234C 273.535,224.698 265.035,217.198 255,211.5C 254.667,211.833 254.333,212.167 254,212.5C 253.22,210.613 253.387,208.946 254.5,207.5C 254.281,208.675 254.614,209.675 255.5,210.5C 257.167,209.167 258.833,207.833 260.5,206.5C 267.4,210.78 274.4,214.78 281.5,218.5 Z"/></g>
<g><path style="opacity:1" fill="#113352" d="M 117.5,207.5 C 119.471,212.105 121.971,216.438 125,220.5C 140.273,242.939 158.773,262.273 180.5,278.5C 177.919,279.488 175.252,280.488 172.5,281.5C 172.631,280.761 172.464,280.094 172,279.5C 147.852,259.208 128.019,235.541 112.5,208.5C 114.042,207.699 115.708,207.366 117.5,207.5 Z"/></g>
<g><path style="opacity:1" fill="#25b3f9" d="M 112.5,208.5 C 128.019,235.541 147.852,259.208 172,279.5C 172.464,280.094 172.631,280.761 172.5,281.5C 167.792,284.199 162.792,285.699 157.5,286C 153.957,279.076 149.79,272.576 145,266.5C 132.184,255.025 120.85,242.358 111,228.5C 108.001,223.502 105.834,218.169 104.5,212.5C 104.608,211.558 104.941,210.725 105.5,210C 107.813,209.338 110.146,208.838 112.5,208.5 Z"/></g>
<g><path style="opacity:1" fill="#0f2c49" d="M 397.5,225.5 C 396.432,226.434 395.099,226.768 393.5,226.5C 389.146,224.652 384.48,223.985 379.5,224.5C 382.409,222.938 385.076,220.938 387.5,218.5C 391.606,217.849 395.439,216.516 399,214.5C 400.5,214.667 401.333,215.5 401.5,217C 400.284,220.221 398.284,222.888 395.5,225C 396.094,225.464 396.761,225.631 397.5,225.5 Z"/></g>
<g><path style="opacity:1" fill="#196492" d="M 189.5,244.5 C 189.389,243.883 189.056,243.383 188.5,243C 190.5,242 192.5,241 194.5,240C 197.924,236.735 198.257,233.235 195.5,229.5C 186.116,227.993 176.783,226.159 167.5,224C 163.388,222.221 160.222,219.388 158,215.5C 154.833,207.527 156.333,200.694 162.5,195C 157.853,192.174 155.52,188.007 155.5,182.5C 155.461,181.244 155.961,180.244 157,179.5C 155.994,188.477 159.827,192.977 168.5,193C 170.541,191.758 171.707,189.925 172,187.5C 173.487,189.272 173.82,191.272 173,193.5C 169.389,195.703 165.556,197.536 161.5,199C 155.628,207.446 156.962,214.779 165.5,221C 170.702,223.327 175.368,222.494 179.5,218.5C 181.046,222.903 184.046,225.07 188.5,225C 187.235,223.663 186.735,222.163 187,220.5C 195.768,219.932 200.102,224.266 200,233.5C 201.747,230.79 202.747,227.79 203,224.5C 207.069,230.017 207.402,235.684 204,241.5C 199.568,244.165 194.734,245.165 189.5,244.5 Z"/></g>
<g><path style="opacity:1" fill="#186391" d="M 249.5,279.5 C 246.832,277.664 244.666,275.331 243,272.5C 237.333,260.833 231.667,249.167 226,237.5C 225.292,236.619 224.458,235.953 223.5,235.5C 221.621,231.447 218.788,228.114 215,225.5C 214.409,224.517 214.743,223.85 216,223.5C 223.654,227.154 229.321,232.821 233,240.5C 236.197,249.092 239.197,257.758 242,266.5C 244.018,271.215 246.518,275.549 249.5,279.5 Z"/></g>
<g><path style="opacity:1" fill="#25b0f6" d="M 397.5,225.5 C 398.5,225.5 399.5,225.5 400.5,225.5C 400.731,232.196 402.398,238.53 405.5,244.5C 405.333,245.167 405.167,245.833 405,246.5C 403.961,245.29 402.794,244.29 401.5,243.5C 400.029,239.62 398.862,235.62 398,231.5C 396.894,235.838 396.061,240.171 395.5,244.5C 394.833,244.5 394.167,244.5 393.5,244.5C 391.035,238.626 391.035,232.626 393.5,226.5C 395.099,226.768 396.432,226.434 397.5,225.5 Z"/></g>
<g><path style="opacity:1" fill="#1a70a2" d="M 401.5,243.5 C 399.683,245.51 397.683,245.843 395.5,244.5C 396.061,240.171 396.894,235.838 398,231.5C 398.862,235.62 400.029,239.62 401.5,243.5 Z"/></g>
<g><path style="opacity:1" fill="#113251" d="M 216.5,241.5 C 220.503,241.971 223.669,243.971 226,247.5C 228.58,252.296 230.246,257.296 231,262.5C 226.147,255.442 221.314,248.442 216.5,241.5 Z"/></g>
<g><path style="opacity:1" fill="#0f2c48" d="M 223.5,235.5 C 224.458,235.953 225.292,236.619 226,237.5C 231.667,249.167 237.333,260.833 243,272.5C 244.666,275.331 246.832,277.664 249.5,279.5C 254.708,284.197 260.375,288.363 266.5,292C 290.298,304.821 315.298,314.487 341.5,321C 350.356,326.285 359.856,329.785 370,331.5C 370.688,332.332 370.521,332.998 369.5,333.5C 358.817,332.105 348.817,328.605 339.5,323C 321.759,317.197 304.092,311.197 286.5,305C 266.388,298.864 250.221,287.364 238,270.5C 233.13,258.772 228.297,247.105 223.5,235.5 Z"/></g>
<g><path style="opacity:1" fill="#196695" d="M 351.5,259.5 C 347.833,257.5 344.167,255.5 340.5,253.5C 342.334,248.423 345.667,247.256 350.5,250C 353.979,252.995 354.312,256.161 351.5,259.5 Z"/></g>
<g><path style="opacity:1" fill="#10304e" d="M 339.5,241.5 C 349.377,248.938 360.377,253.938 372.5,256.5C 368.199,259.551 363.366,261.551 358,262.5C 355.454,262.141 353.287,261.141 351.5,259.5C 354.312,256.161 353.979,252.995 350.5,250C 345.667,247.256 342.334,248.423 340.5,253.5C 339.5,252.833 338.5,252.167 337.5,251.5C 339.181,248.418 339.848,245.085 339.5,241.5 Z"/></g>
<g><path style="opacity:1" fill="#24aff5" d="M 405.5,270.5 C 403.037,272.378 400.204,273.378 397,273.5C 389.238,272.049 381.405,271.216 373.5,271C 371.249,270.252 369.916,268.752 369.5,266.5C 379.676,262.557 390.176,261.557 401,263.5C 402.326,263.245 403.326,262.578 404,261.5C 404.696,264.478 405.196,267.478 405.5,270.5 Z"/></g>
<g><path style="opacity:1" fill="#0f2945" d="M 203.5,260.5 C 207.87,261.185 211.536,263.185 214.5,266.5C 218.021,270.213 220.521,274.547 222,279.5C 227.457,300.623 230.957,321.957 232.5,343.5C 231.914,343.291 231.414,342.957 231,342.5C 228.112,320.947 224.112,299.614 219,278.5C 215.697,270.71 210.53,264.71 203.5,260.5 Z"/></g>
<g><path style="opacity:1" fill="#102c49" d="M 345.5,264.5 C 351.277,267.891 357.277,271.057 363.5,274C 369.29,276.281 375.29,277.614 381.5,278C 376.54,280.147 371.873,282.814 367.5,286C 364.261,287.736 361.927,290.236 360.5,293.5C 360.44,294.043 360.107,294.376 359.5,294.5C 347.89,289.679 336.224,283.512 324.5,276C 319.757,273.435 316.757,269.602 315.5,264.5C 322.183,266.179 328.849,267.846 335.5,269.5C 339.991,269.921 343.325,268.255 345.5,264.5 Z"/></g>
<g><path style="opacity:1" fill="#102d4a" d="M 369.5,266.5 C 369.916,268.752 371.249,270.252 373.5,271C 381.405,271.216 389.238,272.049 397,273.5C 400.204,273.378 403.037,272.378 405.5,270.5C 406.83,273.44 406.663,276.44 405,279.5C 392.331,276.968 379.498,274.468 366.5,272C 362.221,270.527 358.221,268.527 354.5,266C 357.442,266.311 360.442,266.811 363.5,267.5C 365.512,267.16 367.512,266.827 369.5,266.5 Z"/></g>
<g><path style="opacity:1" fill="#0f2b47" d="M 208.5,316.5 C 207.833,316.5 207.167,316.5 206.5,316.5C 208.296,306.24 208.796,295.907 208,285.5C 206.789,282.241 204.956,279.408 202.5,277C 204.333,275.833 206.167,274.667 208,273.5C 212.498,277.666 214.665,282.833 214.5,289C 213.836,298.511 211.836,307.677 208.5,316.5 Z"/></g>
<g><path style="opacity:1" fill="#0f2c49" d="M 278.5,272.5 C 286.267,282.102 294.934,290.935 304.5,299C 314.896,304.861 325.229,310.694 335.5,316.5C 313.317,311.944 292.65,303.777 273.5,292C 278.561,286.326 280.228,279.826 278.5,272.5 Z"/></g>
<g><path style="opacity:1" fill="#25b2f9" d="M 182.5,286.5 C 183.324,334.368 168.657,376.701 138.5,413.5C 134.91,413.456 132.41,411.789 131,408.5C 130.209,404.074 130.543,399.741 132,395.5C 143.773,381.062 154.773,366.062 165,350.5C 176.895,329.641 179.728,307.641 173.5,284.5C 176.829,284.215 179.829,284.882 182.5,286.5 Z"/></g>
<g><path style="opacity:1" fill="#113656" d="M 182.5,286.5 C 185.067,286.721 187.401,287.388 189.5,288.5C 186.908,328.144 174.741,364.811 153,398.5C 149.287,403.424 145.454,408.258 141.5,413C 142.094,413.464 142.761,413.631 143.5,413.5C 142.001,414.494 140.334,414.494 138.5,413.5C 168.657,376.701 183.324,334.368 182.5,286.5 Z"/></g>
<g><path style="opacity:1" fill="#25b4fb" d="M 401.5,306.5 C 401.66,308.199 401.494,309.866 401,311.5C 400.097,310.299 398.931,309.465 397.5,309C 391.39,308.912 385.39,308.245 379.5,307C 373.855,301.987 373.188,296.487 377.5,290.5C 378.683,289.496 380.016,288.662 381.5,288C 390.651,284.95 396.818,287.784 400,296.5C 401.043,299.757 401.543,303.09 401.5,306.5 Z"/></g>
<g><path style="opacity:1" fill="#25b3fa" d="M 189.5,288.5 C 193.096,289.8 196.763,290.8 200.5,291.5C 198.875,337.23 182.541,376.73 151.5,410C 148.924,411.456 146.258,412.623 143.5,413.5C 142.761,413.631 142.094,413.464 141.5,413C 145.454,408.258 149.287,403.424 153,398.5C 174.741,364.811 186.908,328.144 189.5,288.5 Z"/></g>
<g><path style="opacity:1" fill="#102e4b" d="M 230.5,288.5 C 235.04,313.199 239.707,337.866 244.5,362.5C 244.158,363.338 243.492,363.672 242.5,363.5C 235.956,338.814 230.956,313.814 227.5,288.5C 228.5,288.5 229.5,288.5 230.5,288.5 Z"/></g>
<g><path style="opacity:1" fill="#1a6392" d="M 230.5,288.5 C 231.833,288.5 233.167,288.5 234.5,288.5C 238.965,312.291 243.965,335.958 249.5,359.5C 248.341,361.25 246.674,362.25 244.5,362.5C 239.707,337.866 235.04,313.199 230.5,288.5 Z"/></g>
<g><path style="opacity:1" fill="#0f2b47" d="M 247.5,292.5 C 247.833,293.833 248.167,295.167 248.5,296.5C 247.427,297.251 247.26,298.251 248,299.5C 253.838,310.488 258.504,321.821 262,333.5C 258.667,330.833 255.333,328.167 252,325.5C 248.929,309.453 243.762,294.12 236.5,279.5C 236.846,278.304 237.346,278.304 238,279.5C 240.667,284.833 243.333,290.167 246,295.5C 246.617,292.965 246.117,290.632 244.5,288.5C 244.846,287.304 245.346,287.304 246,288.5C 246.791,289.745 247.291,291.078 247.5,292.5 Z"/></g>
<g><path style="opacity:1" fill="#186391" d="M 247.5,292.5 C 259.725,310.597 271.725,328.931 283.5,347.5C 282.311,348.429 280.978,348.762 279.5,348.5C 278.542,348.047 277.708,347.381 277,346.5C 269.807,334.104 262.64,321.77 255.5,309.5C 253.417,305 251.084,300.666 248.5,296.5C 248.167,295.167 247.833,293.833 247.5,292.5 Z"/></g>
<g><path style="opacity:1" fill="#631632" d="M 317.5,325.5 C 316.662,325.842 316.328,326.508 316.5,327.5C 304.403,322.41 292.236,317.41 280,312.5C 277.888,313.608 276.054,315.108 274.5,317C 273.668,317.688 273.002,317.521 272.5,316.5C 273.818,313.35 275.984,311.017 279,309.5C 291.98,314.748 304.813,320.081 317.5,325.5 Z"/></g>
<g><path style="opacity:1" fill="#102d4b" d="M 255.5,309.5 C 262.64,321.77 269.807,334.104 277,346.5C 277.708,347.381 278.542,348.047 279.5,348.5C 278.003,349.306 276.336,349.972 274.5,350.5C 273.914,350.291 273.414,349.957 273,349.5C 266.83,336.175 260.997,322.842 255.5,309.5 Z"/></g>
<g><path style="opacity:1" fill="#631632" d="M 206.5,316.5 C 207.167,316.5 207.833,316.5 208.5,316.5C 200.319,346.704 188.986,375.704 174.5,403.5C 176.184,404.854 176.684,406.521 176,408.5C 173.501,415.664 170.334,422.497 166.5,429C 166.911,430.144 167.244,431.311 167.5,432.5C 166.641,435.051 165.641,437.551 164.5,440C 166.242,443.483 168.242,446.816 170.5,450C 169.216,450.684 168.049,450.517 167,449.5C 165.027,446.536 163.527,443.369 162.5,440C 163.313,437.54 163.98,435.04 164.5,432.5C 164.43,431.228 164.097,430.062 163.5,429C 168.245,422.077 171.412,414.577 173,406.5C 171.667,405.167 170.333,405.167 169,406.5C 164.667,415.167 160.333,423.833 156,432.5C 154.566,436.406 154.233,440.406 155,444.5C 156.635,447.632 158.468,450.632 160.5,453.5C 160.167,453.833 159.833,454.167 159.5,454.5C 153.654,449.476 151.154,443.143 152,435.5C 157.5,424.5 163,413.5 168.5,402.5C 169.967,402.277 171.467,401.944 173,401.5C 187.01,374.168 198.177,345.834 206.5,316.5 Z"/></g>
<g><path style="opacity:1" fill="#631632" d="M 310.5,334.5 C 310.5,335.167 310.5,335.833 310.5,336.5C 300.929,332.881 291.262,329.547 281.5,326.5C 281.281,325.325 281.614,324.325 282.5,323.5C 291.862,327.175 301.195,330.841 310.5,334.5 Z"/></g>
<g><path style="opacity:1" fill="#b41a3d" d="M 317.5,325.5 C 320.514,326.274 323.181,327.607 325.5,329.5C 325,329.833 324.5,330.167 324,330.5C 321.535,329.349 319.035,328.349 316.5,327.5C 316.328,326.508 316.662,325.842 317.5,325.5 Z"/></g>
<g><path style="opacity:1" fill="#0f2c48" d="M 244.5,324.5 C 248.637,329.469 253.304,333.969 258.5,338C 257.09,338.368 256.09,339.201 255.5,340.5C 257.328,345.351 259.994,349.518 263.5,353C 263.355,353.772 263.022,354.439 262.5,355C 259.568,355.953 256.568,356.453 253.5,356.5C 250.902,345.707 247.902,335.04 244.5,324.5 Z"/></g>
<g><path style="opacity:1" fill="#661633" d="M 195.5,390.5 C 191.915,396.002 188.581,401.669 185.5,407.5C 196.025,381.928 206.358,356.262 216.5,330.5C 217.72,330.887 218.387,331.72 218.5,333C 211.495,352.534 203.828,371.701 195.5,390.5 Z"/></g>
<g><path style="opacity:1" fill="#621632" d="M 307.5,342.5 C 306.313,344.072 305.313,345.739 304.5,347.5C 304.5,345.833 304.5,344.167 304.5,342.5C 296.835,340.5 289.502,337.667 282.5,334C 283.025,333.308 283.692,332.808 284.5,332.5C 292.373,335.609 300.04,338.943 307.5,342.5 Z"/></g>
<g><path style="opacity:1" fill="#b01c3e" d="M 310.5,334.5 C 316.616,336.143 322.282,338.643 327.5,342C 327.167,342.5 326.833,343 326.5,343.5C 321.337,340.779 316.004,338.446 310.5,336.5C 310.5,335.833 310.5,335.167 310.5,334.5 Z"/></g>
<g><path style="opacity:1" fill="#0f2b47" d="M 263.5,337.5 C 266.947,338.73 267.947,341.064 266.5,344.5C 271.755,354.081 271.088,354.581 264.5,346C 263.216,345.316 262.049,345.483 261,346.5C 259.954,344.91 258.787,343.41 257.5,342C 259.684,340.637 261.684,339.137 263.5,337.5 Z"/></g>
<g><path style="opacity:1" fill="#b81b3f" d="M 307.5,342.5 C 306.759,350.8 306.259,359.133 306,367.5C 305.333,368.167 304.667,368.833 304,369.5C 303.943,362.176 304.109,354.843 304.5,347.5C 305.313,345.739 306.313,344.072 307.5,342.5 Z"/></g>
<g><path style="opacity:1" fill="#681633" d="M 289.5,348.5 C 290.833,348.5 292.167,348.5 293.5,348.5C 292.883,361.239 291.716,373.906 290,386.5C 286.333,389.5 282.667,392.5 279,395.5C 278.857,400.305 279.69,404.971 281.5,409.5C 276.827,418.855 271.66,427.855 266,436.5C 263.812,435.941 263.146,434.607 264,432.5C 268.301,424.73 272.468,416.897 276.5,409C 275.297,403.878 274.797,398.712 275,393.5C 279.953,390.22 283.786,386.053 286.5,381C 287.693,370.179 288.693,359.346 289.5,348.5 Z"/></g>
<g><path style="opacity:1" fill="#b61a3e" d="M 225.5,350.5 C 227.026,351.105 228.026,352.271 228.5,354C 214.932,381.636 201.765,409.47 189,437.5C 188.109,440.934 188.609,444.101 190.5,447C 190.387,448.28 189.72,449.113 188.5,449.5C 184.283,445.16 183.449,440.16 186,434.5C 199.47,406.564 212.637,378.564 225.5,350.5 Z"/></g>
<g><path style="opacity:1" fill="#ad1a3d" d="M 242.5,363.5 C 243.492,363.672 244.158,363.338 244.5,362.5C 246.674,362.25 248.341,361.25 249.5,359.5C 250.695,359.322 251.862,358.989 253,358.5C 254.608,358.974 254.774,359.641 253.5,360.5C 244.412,365.793 235.579,371.459 227,377.5C 223.086,384.996 218.92,392.329 214.5,399.5C 213.417,398.635 213.251,397.635 214,396.5C 217.412,389.342 221.078,382.342 225,375.5C 231.012,371.637 236.845,367.637 242.5,363.5 Z"/></g>
<g><path style="opacity:1" fill="#196695" d="M 253.5,424.5 C 253.5,423.833 253.167,423.5 252.5,423.5C 252.5,423.167 252.5,422.833 252.5,422.5C 252.229,417.087 252.729,411.754 254,406.5C 260.178,394.145 266.344,381.811 272.5,369.5C 273.072,368.027 273.905,366.693 275,365.5C 273.987,374.896 272.321,384.229 270,393.5C 269.293,395.081 268.46,396.581 267.5,398C 264.756,398.803 262.089,399.803 259.5,401C 258.874,401.75 258.374,402.584 258,403.5C 258.464,412.142 258.464,420.808 258,429.5C 256.264,427.937 254.764,426.27 253.5,424.5 Z"/></g>
<g><path style="opacity:1" fill="#102d4b" d="M 261.5,370.5 C 252.108,382.226 241.442,392.559 229.5,401.5C 230.089,399.602 230.256,397.602 230,395.5C 232.833,392.667 235.667,389.833 238.5,387C 236.114,386.716 235.448,385.716 236.5,384C 244.887,379.475 253.221,374.975 261.5,370.5 Z"/></g>
<g><path style="opacity:1" fill="#102d4a" d="M 272.5,369.5 C 266.344,381.811 260.178,394.145 254,406.5C 252.729,411.754 252.229,417.087 252.5,422.5C 247.93,416.278 246.097,409.278 247,401.5C 254.984,390.358 263.484,379.691 272.5,369.5 Z"/></g>
<g><path style="opacity:1" fill="#18608e" d="M 229.5,401.5 C 241.442,392.559 252.108,382.226 261.5,370.5C 262.794,369.71 263.961,368.71 265,367.5C 265.667,368.167 265.667,368.833 265,369.5C 254.464,380.367 244.298,391.534 234.5,403C 230.122,404.875 226.122,407.375 222.5,410.5C 221.479,409.998 221.312,409.332 222,408.5C 224.86,406.498 227.36,404.165 229.5,401.5 Z"/></g>
<g><path style="opacity:1" fill="#113351" d="M 289.5,410.5 C 285.5,416.5 281.5,422.5 277.5,428.5C 282.168,417.664 287.502,407.164 293.5,397C 295.074,396.301 296.407,396.635 297.5,398C 294.934,402.316 292.267,406.483 289.5,410.5 Z"/></g>
<g><path style="opacity:1" fill="#641632" d="M 163.5,403.5 C 164.376,403.369 165.043,403.702 165.5,404.5C 161.5,411.833 157.5,419.167 153.5,426.5C 152.417,425.635 152.251,424.635 153,423.5C 156.258,416.649 159.758,409.982 163.5,403.5 Z"/></g>
<g><path style="opacity:1" fill="#10304e" d="M 123.5,410.5 C 108.73,426.339 97.7303,444.672 90.5,465.5C 88.1046,466.363 85.7713,466.363 83.5,465.5C 91.4571,443.41 103.124,423.576 118.5,406C 121.686,405.554 123.353,407.054 123.5,410.5 Z"/></g>
<g><path style="opacity:1" fill="#ad1a3c" d="M 205.5,408.5 C 212.118,409.071 218.452,410.738 224.5,413.5C 230.763,410.19 237.43,408.523 244.5,408.5C 244.5,409.5 244.5,410.5 244.5,411.5C 241.15,411.335 237.817,411.502 234.5,412C 231.134,413.566 227.634,414.733 224,415.5C 217.356,413.823 211.189,411.49 205.5,408.5 Z"/></g>
<g><path style="opacity:1" fill="#25b0f6" d="M 123.5,410.5 C 124.15,412.435 124.483,414.435 124.5,416.5C 115.964,428.393 108.631,441.06 102.5,454.5C 100.372,457.13 98.0386,459.63 95.5,462C 96.8333,462.667 96.8333,463.333 95.5,464C 93.8455,464.608 92.1789,465.108 90.5,465.5C 97.7303,444.672 108.73,426.339 123.5,410.5 Z"/></g>
<g><path style="opacity:1" fill="#af1a3d" d="M 195.5,390.5 C 191.622,400.593 187.455,410.593 183,420.5C 181.656,423.865 179.823,426.865 177.5,429.5C 179.121,425.257 180.454,420.924 181.5,416.5C 183.625,413.912 184.958,410.912 185.5,407.5C 188.581,401.669 191.915,396.002 195.5,390.5 Z"/></g>
<g><path style="opacity:1" fill="#691633" d="M 147.5,413.5 C 149.346,413.222 150.68,413.889 151.5,415.5C 148.5,421.5 145.5,427.5 142.5,433.5C 140.796,434.823 139.463,434.49 138.5,432.5C 141.784,426.266 144.784,419.933 147.5,413.5 Z"/></g>
<g><path style="opacity:1" fill="#651632" d="M 185.5,407.5 C 184.958,410.912 183.625,413.912 181.5,416.5C 182.042,413.088 183.375,410.088 185.5,407.5 Z"/></g>
<g><path style="opacity:1" fill="#123859" d="M 124.5,416.5 C 125.309,418.028 125.976,419.694 126.5,421.5C 119.79,428.083 114.29,435.75 110,444.5C 109.26,445.749 109.427,446.749 110.5,447.5C 107.618,449.613 104.951,451.946 102.5,454.5C 108.631,441.06 115.964,428.393 124.5,416.5 Z"/></g>
<g><path style="opacity:1" fill="#24aff5" d="M 126.5,421.5 C 127.825,425.128 128.659,428.795 129,432.5C 122.645,437.364 116.478,442.364 110.5,447.5C 109.427,446.749 109.26,445.749 110,444.5C 114.29,435.75 119.79,428.083 126.5,421.5 Z"/></g>
<g><path style="opacity:1" fill="#671633" d="M 181.5,416.5 C 180.454,420.924 179.121,425.257 177.5,429.5C 176.969,431.544 175.802,433.211 174,434.5C 173.51,436.545 173.677,438.545 174.5,440.5C 173.094,440.973 172.427,441.973 172.5,443.5C 169.299,438.197 169.966,433.364 174.5,429C 172.939,428.059 171.605,426.892 170.5,425.5C 174.167,418.833 177.833,412.167 181.5,405.5C 182.308,405.808 182.975,406.308 183.5,407C 180.04,412.752 176.707,418.585 173.5,424.5C 173.833,425.5 174.5,426.167 175.5,426.5C 177.526,423.103 179.526,419.77 181.5,416.5 Z"/></g>
<g><path style="opacity:1" fill="#186290" d="M 289.5,410.5 C 287.705,415.423 285.372,420.09 282.5,424.5C 282.667,424.833 282.833,425.167 283,425.5C 284,424.167 285,422.833 286,421.5C 286.692,422.025 287.192,422.692 287.5,423.5C 282.452,432.644 278.786,442.31 276.5,452.5C 274.5,453.833 272.5,453.833 270.5,452.5C 271.9,444.236 274.233,436.236 277.5,428.5C 281.5,422.5 285.5,416.5 289.5,410.5 Z"/></g>
<g><path style="opacity:1" fill="#ab1c3e" d="M 252.5,423.5 C 253.167,423.5 253.5,423.833 253.5,424.5C 251.912,426.616 249.912,426.949 247.5,425.5C 248.668,423.783 250.335,423.116 252.5,423.5 Z"/></g>
<g><path style="opacity:1" fill="#18608e" d="M 226.5,420.5 C 233.565,429.399 241.231,437.899 249.5,446C 251.745,445.805 253.578,444.638 255,442.5C 253.562,448.398 251.228,454.064 248,459.5C 248,455.5 248,451.5 248,447.5C 239.384,439.89 231.884,431.39 225.5,422C 226.056,421.617 226.389,421.117 226.5,420.5 Z"/></g>
<g><path style="opacity:1" fill="#5e1631" d="M 269.5,463.5 C 268.596,464.209 268.263,465.209 268.5,466.5C 264.432,457.89 264.598,449.223 269,440.5C 270.156,439.007 270.99,439.174 271.5,441C 268.338,448.246 267.672,455.746 269.5,463.5 Z"/></g>
<g><path style="opacity:1" fill="#b91a3e" d="M 174.5,440.5 C 175.009,443.192 176.009,445.692 177.5,448C 176.725,449.23 175.725,449.563 174.5,449C 173.139,447.416 172.472,445.582 172.5,443.5C 172.427,441.973 173.094,440.973 174.5,440.5 Z"/></g>
<g><path style="opacity:1" fill="#196392" d="M 217.5,438.5 C 220.808,437.321 222.308,438.655 222,442.5C 220.629,440.959 219.129,439.625 217.5,438.5 Z"/></g>
<g><path style="opacity:1" fill="#102d4b" d="M 224.5,446.5 C 221.093,446.125 220.593,447.125 223,449.5C 234.653,462.83 245.82,476.497 256.5,490.5C 253.467,491.171 250.467,490.671 247.5,489C 247.833,488.667 248.167,488.333 248.5,488C 238,475.5 227.5,463 217,450.5C 217.255,447.42 219.088,445.753 222.5,445.5C 223.416,445.543 224.083,445.876 224.5,446.5 Z"/></g>
<g><path style="opacity:1" fill="#196392" d="M 224.5,446.5 C 236.969,461.143 249.302,475.977 261.5,491C 259.735,491.64 258.068,491.473 256.5,490.5C 245.82,476.497 234.653,462.83 223,449.5C 220.593,447.125 221.093,446.125 224.5,446.5 Z"/></g>
<g><path style="opacity:1" fill="#ae1a3d" d="M 268.5,466.5 C 268.263,465.209 268.596,464.209 269.5,463.5C 270.601,468.369 272.768,472.702 276,476.5C 276.098,470.146 274.932,463.979 272.5,458C 272.667,457.5 272.833,457 273,456.5C 274.29,458.792 275.957,460.792 278,462.5C 278.242,468.884 278.908,475.218 280,481.5C 283.167,484.667 286.333,487.833 289.5,491C 288.975,491.692 288.308,492.192 287.5,492.5C 278.79,485.473 272.457,476.807 268.5,466.5 Z"/></g>
<g><path style="opacity:1" fill="#186290" d="M 189.5,458.5 C 198.613,460.557 207.613,463.057 216.5,466C 220.45,470.072 224.283,474.238 228,478.5C 228.49,479.793 228.657,481.127 228.5,482.5C 227.448,482.649 226.448,482.483 225.5,482C 221.263,477.52 217.263,472.853 213.5,468C 204.787,466.594 196.454,464.094 188.5,460.5C 188.863,459.817 189.196,459.15 189.5,458.5 Z"/></g>
</svg>
